<?xml version="1.0" encoding="UTF-8"?>
<svg xmlns="http://www.w3.org/2000/svg" xmlns:xlink="http://www.w3.org/1999/xlink" width="16px" height="16px" viewBox="0 0 16 16" version="1.1">
	<path style="fill:#000000;" d="M 3.734375 12.683594 C 3.71875 12.691406 3.4375 12.40625 3.214844 12.183594 C 2.246094 11.21875 1.589844 9.988281 1.351562 8.691406 C 1.242188 8.101562 1.238281 6.960938 1.347656 6.386719 C 1.691406 4.519531 2.859375 2.835938 4.484375 1.863281 L 4.9375 1.664062 L 4.625 1.90625 C 4.078125 2.476562 3.71875 3.171875 3.628906 3.925781 C 3.609375 4.097656 3.539062 4.253906 3.34375 4.542969 C 2.851562 5.285156 2.558594 6.097656 2.464844 7.027344 C 2.332031 8.347656 2.71875 9.710938 3.535156 10.78125 L 3.835938 11.183594 M 10.746094 13.453125 C 11.347656 13.015625 11.789062 12.582031 12.050781 12.058594 C 12.21875 11.730469 12.292969 11.460938 12.453125 11.023438 C 12.5 10.996094 12.511719 10.796875 12.667969 10.570312 C 13.386719 9.496094 13.703125 8.242188 13.570312 6.984375 C 13.433594 5.679688 12.910156 4.609375 11.945312 3.652344 L 11.472656 3.1875 L 11.519531 2.566406 C 11.546875 2.230469 11.582031 1.9375 11.597656 1.925781 C 11.628906 1.890625 12.1875 2.289062 12.539062 2.589844 C 13.636719 3.550781 14.425781 4.929688 14.691406 6.371094 C 14.804688 6.957031 14.804688 8.09375 14.691406 8.691406 C 14.324219 10.691406 13.027344 12.535156 11.171875 13.382812 C 10.707031 13.589844 10.617188 13.546875 10.746094 13.453125 Z M 10.746094 13.453125 "/>
	<path style="fill:#000000;" d="M 7.636719 14.089844 C 7 14.089844 6.355469 14.027344 5.707031 13.90625 C 5.070312 13.773438 4.460938 13.570312 3.875 13.304688 L 4.140625 9.980469 L 4.21875 9.980469 C 4.355469 10.359375 4.523438 10.734375 4.714844 11.097656 C 4.917969 11.449219 5.152344 11.765625 5.421875 12.046875 C 5.699219 12.324219 6.019531 12.554688 6.375 12.738281 C 6.746094 12.910156 7.164062 12.992188 7.636719 12.992188 C 8.210938 12.992188 8.675781 12.84375 9.03125 12.539062 C 9.402344 12.234375 9.589844 11.800781 9.589844 11.242188 C 9.589844 10.734375 9.441406 10.300781 9.144531 9.945312 C 8.867188 9.589844 8.507812 9.273438 8.078125 8.996094 C 7.644531 8.714844 7.179688 8.449219 6.683594 8.191406 C 6.183594 7.9375 5.71875 7.644531 5.289062 7.316406 C 4.855469 6.988281 4.492188 6.605469 4.199219 6.167969 C 3.917969 5.730469 3.777344 5.191406 3.777344 4.546875 C 3.777344 3.960938 3.886719 3.453125 4.101562 3.015625 C 4.320312 2.5625 4.617188 2.183594 5 1.878906 C 5.382812 1.574219 5.828125 1.34375 6.339844 1.183594 C 6.847656 1.027344 7.394531 0.949219 7.980469 0.949219 C 8.644531 0.949219 9.273438 1.035156 9.878906 1.203125 C 10.488281 1.363281 10.996094 1.539062 11.40625 1.734375 L 11.136719 4.964844 L 11.0625 4.964844 C 10.921875 4.539062 10.761719 4.152344 10.582031 3.796875 C 10.40625 3.445312 10.195312 3.140625 9.953125 2.886719 C 9.710938 2.617188 9.421875 2.40625 9.089844 2.261719 C 8.769531 2.117188 8.402344 2.042969 7.980469 2.042969 C 7.496094 2.042969 7.089844 2.195312 6.757812 2.5 C 6.425781 2.792969 6.261719 3.171875 6.261719 3.632812 C 6.261719 4.082031 6.40625 4.472656 6.699219 4.800781 C 7.007812 5.117188 7.375 5.414062 7.808594 5.695312 C 8.253906 5.960938 8.738281 6.230469 9.261719 6.496094 C 9.785156 6.753906 10.265625 7.054688 10.699219 7.410156 C 11.144531 7.75 11.511719 8.15625 11.804688 8.628906 C 12.113281 9.09375 12.265625 9.664062 12.265625 10.347656 C 12.265625 10.957031 12.136719 11.492188 11.882812 11.953125 C 11.640625 12.417969 11.308594 12.804688 10.890625 13.121094 C 10.46875 13.4375 9.976562 13.679688 9.414062 13.851562 C 8.851562 14.007812 8.261719 14.089844 7.636719 14.089844 Z M 7.636719 14.089844 "/>
</svg>
