<svg version="1.2" xmlns="http://www.w3.org/2000/svg" viewBox="0 0 512 512" width="512" height="512">
	<title>New Project</title>
	<style>
		.s0 { fill: #18191a } 
		.s1 { fill: #db994b } 
		.s2 { paint-order:stroke fill markers;stroke: #18191a;stroke-width: 22;stroke-linejoin: round;;fill: #db994b } 
	</style>
	<g id="Folder 1">
		<rect id="Shape 2" class="s0" x="8" y="49.8" width="497.6" height="415.7" rx="42"></rect>
		<path id="Shape 1" class="s1" d="m112.7 438.5c-0.5 0.3-10-9.7-17.5-17.6-32.5-34-54.5-77.3-62.7-123-3.6-20.8-3.8-60.8-0.1-81.1 11.6-65.8 50.8-125 105.5-159.2l15.3-7.1-10.7 8.5c-18.3 20.1-30.3 44.7-33.3 71.2-0.8 6.1-3.2 11.4-9.7 21.6-16.6 26.1-26.3 54.7-29.5 87.6-4.5 46.4 8.4 94.4 35.9 132.2l10.2 14m232.2 80c20.3-15.3 35-30.7 43.8-49.1 5.6-11.6 8.2-21 13.6-36.4 1.5-1 2-8 7.1-16.1 24.2-37.7 34.9-81.8 30.4-126.1-4.6-45.9-22.1-83.7-54.7-117.3l-15.7-16.4 1.5-21.9c1-11.9 2.1-22 2.6-22.5 1.1-1.2 19.9 12.7 31.6 23.3 37 33.9 63.4 82.4 72.3 133.1 3.9 20.7 3.9 60.6 0 81.7-12.2 70.4-55.7 135.4-118.3 165.2-15.4 7.4-18.6 5.8-14.2 2.5z"/>
		<path id="S" class="s2" aria-label="S"  d="m243.8 488.4q-32.1 0-64.8-6.4-32.2-7.1-61.7-21.2l9-116.9h2.6q7 19.9 16.7 39.2 10.2 18.6 23.7 33.4 14.2 14.8 32.1 24.4 18.7 9 42.4 9 29 0 46.9-16.1 18.7-16 18.7-45.6 0-27-14.8-45.6-14.1-18.6-36-33.4-21.8-14.8-46.9-28.3-25-13.5-46.9-30.8-21.8-17.3-36.6-40.5-14.1-23.1-14.1-57.1 0-30.9 10.9-54 10.9-23.8 30.2-39.8 19.3-16.1 45-24.5 25.7-8.3 55.2-8.3 33.4 0 63.6 9 30.8 8.3 51.4 18.6l-9 113.7h-2.6q-7-22.5-16-41.1-9-18.6-21.2-32.1-12.2-14.1-28.9-21.8-16.1-7.8-37.3-7.8-24.4 0-41.1 16.1-16.7 15.4-16.7 39.8 0 23.8 14.8 41.1 15.4 16.7 37.2 31.5 22.5 14.2 48.8 28.3 26.4 13.5 48.2 32.1 22.5 18 37.3 43 15.4 24.5 15.4 60.4 0 32.2-12.8 56.6-12.3 24.4-33.4 41.1-21.2 16.7-49.5 25.7-28.3 8.3-59.8 8.3z"/>
	</g>
</svg>